<?xml version="1.0" encoding="utf-8"?>
<!-- Generator: Adobe Illustrator 16.0.0, SVG Export Plug-In . SVG Version: 6.00 Build 0)  -->
<!DOCTYPE svg PUBLIC "-//W3C//DTD SVG 1.1//EN" "http://www.w3.org/Graphics/SVG/1.1/DTD/svg11.dtd">
<svg version="1.1" id="Anchor_Root_Bone_1_" xmlns="http://www.w3.org/2000/svg" xmlns:xlink="http://www.w3.org/1999/xlink"
	 x="0px" y="0px" width="32px" height="32px" viewBox="0 0 32 32" enable-background="new 0 0 32 32" xml:space="preserve">
<g id="Bone">
	<g>
		<path fill-rule="evenodd" clip-rule="evenodd" fill="#BBBBBB" d="M27,18c-1.104,0-2.104,0.447-2.828,1.172L12.828,7.828
			C13.552,7.104,14,6.104,14,5c0-2.209-1.791-4-4-4S6,2.791,6,5c0,0.423,0.083,0.822,0.205,1.205C5.823,6.083,5.423,6,5,6
			c-2.209,0-4,1.791-4,4s1.791,4,4,4c1.104,0,2.104-0.448,2.828-1.172l11.344,11.344C18.447,24.896,18,25.896,18,27
			c0,2.209,1.791,4,4,4s4-1.791,4-4c0-0.423-0.084-0.822-0.205-1.205C26.178,25.916,26.577,26,27,26c2.209,0,4-1.791,4-4
			S29.209,18,27,18z"/>
	</g>
</g>
<g id="Anchor">
	<g>
		<path fill-rule="evenodd" clip-rule="evenodd" fill="#BBBBBB" d="M15.725,25.15c-0.667,1.947-2.486,3.428-4.725,3.772V24h3
			c0.552,0,1-0.224,1-0.5S14.552,23,14,23h-3v-1.277c0.595-0.347,1-0.984,1-1.723c0-1.104-0.896-2-2-2s-2,0.896-2,2
			c0,0.738,0.405,1.376,1,1.723V23H6c-0.552,0-1,0.224-1,0.5S5.448,24,6,24h3v4.923c-2.238-0.345-4.057-1.825-4.725-3.772
			C4.097,25.576,4,26.029,4,26.5c0,2.485,2.687,4.5,6,4.5s6-2.015,6-4.5C16,26.029,15.903,25.576,15.725,25.15z M10,21
			c-0.552,0-1-0.447-1-1s0.448-1,1-1s1,0.447,1,1S10.552,21,10,21z"/>
	</g>
</g>
</svg>
