<?xml version="1.0" encoding="utf-8"?>
<!-- Generator: Adobe Illustrator 16.0.0, SVG Export Plug-In . SVG Version: 6.00 Build 0)  -->
<!DOCTYPE svg PUBLIC "-//W3C//DTD SVG 1.1//EN" "http://www.w3.org/Graphics/SVG/1.1/DTD/svg11.dtd">
<svg version="1.1" id="Disable_Anims_1_" xmlns="http://www.w3.org/2000/svg" xmlns:xlink="http://www.w3.org/1999/xlink" x="0px"
	 y="0px" width="24px" height="24px" viewBox="0 0 24 24" enable-background="new 0 0 24 24" xml:space="preserve">
<g id="Disable_Anims">
	<g>
		<path fill-rule="evenodd" clip-rule="evenodd" fill="#BBBBBB" d="M21.5,5c-0.652,0-1.201,0.419-1.408,1h-2.184
			c-0.207-0.581-0.756-1-1.408-1s-1.201,0.419-1.408,1h-2.184C12.758,5.576,12.424,5.243,12,5.092V3.908
			c0.581-0.207,1-0.756,1-1.408C13,1.672,12.328,1,11.5,1C10.671,1,10,1.672,10,2.5c0,0.652,0.419,1.201,1,1.408v1.184
			C10.576,5.243,10.243,5.576,10.092,6H7.908C7.702,5.419,7.152,5,6.5,5S5.298,5.419,5.092,6H2.908C2.702,5.419,2.152,5,1.5,5
			C0.671,5,0,5.672,0,6.5S0.671,8,1.5,8c0.652,0,1.202-0.419,1.408-1h2.184C5.298,7.581,5.848,8,6.5,8s1.202-0.419,1.408-1h2.184
			C10.243,7.424,10.576,7.757,11,7.908v3.184c-0.191,0.068-0.364,0.172-0.511,0.307C10.225,11.158,9.886,11,9.5,11
			C8.671,11,8,11.672,8,12.5c0,0.652,0.419,1.201,1,1.408v2.184c-0.581,0.207-1,0.756-1,1.408s0.419,1.201,1,1.408v1.184
			c-0.581,0.207-1,0.756-1,1.408s0.419,1.201,1,1.408V23h1v-0.092c0.581-0.207,1-0.756,1-1.408s-0.419-1.201-1-1.408v-1.184
			c0.581-0.207,1-0.756,1-1.408s-0.419-1.201-1-1.408v-2.184c0.187-0.066,0.351-0.173,0.495-0.302C10.761,13.849,11.111,14,11.5,14
			c0.386,0,0.725-0.158,0.989-0.398c0.146,0.135,0.319,0.238,0.511,0.307v2.184c-0.581,0.207-1,0.756-1,1.408s0.419,1.201,1,1.408
			v1.184c-0.581,0.207-1,0.756-1,1.408s0.419,1.201,1,1.408V23h1v-0.092c0.581-0.207,1-0.756,1-1.408s-0.419-1.201-1-1.408v-1.184
			c0.581-0.207,1-0.756,1-1.408s-0.419-1.201-1-1.408v-2.184c0.581-0.207,1-0.756,1-1.408c0-0.828-0.672-1.5-1.5-1.5
			c-0.389,0-0.739,0.151-1.006,0.394c-0.144-0.129-0.308-0.236-0.494-0.302V7.908C12.424,7.757,12.757,7.424,12.908,7h2.184
			c0.207,0.581,0.756,1,1.408,1s1.201-0.419,1.408-1h2.184c0.207,0.581,0.756,1,1.408,1C22.328,8,23,7.328,23,6.5S22.328,5,21.5,5z"
			/>
	</g>
</g>
</svg>
