<?xml version="1.0" encoding="utf-8"?>
<!-- Generator: Adobe Illustrator 16.0.0, SVG Export Plug-In . SVG Version: 6.00 Build 0)  -->
<!DOCTYPE svg PUBLIC "-//W3C//DTD SVG 1.1//EN" "http://www.w3.org/Graphics/SVG/1.1/DTD/svg11.dtd">
<svg version="1.1" id="Disable_Anims_1_" xmlns="http://www.w3.org/2000/svg" xmlns:xlink="http://www.w3.org/1999/xlink" x="0px"
	 y="0px" width="32px" height="32px" viewBox="0 0 32 32" enable-background="new 0 0 32 32" xml:space="preserve">
<g id="Disable_Anims">
	<g>
		<path fill-rule="evenodd" clip-rule="evenodd" fill="#BBBBBB" d="M29,6c-0.738,0-1.376,0.405-1.723,1h-2.555
			C24.376,6.405,23.738,6,23,6s-1.376,0.405-1.723,1h-3.555C17.548,6.7,17.3,6.452,17,6.277V4.723C17.596,4.376,18,3.738,18,3
			c0-1.104-0.896-2-2-2s-2,0.896-2,2c0,0.738,0.405,1.376,1,1.723v1.555C14.7,6.452,14.452,6.7,14.277,7h-3.555
			C10.376,6.405,9.738,6,9,6S7.624,6.405,7.277,7H4.723C4.376,6.405,3.738,6,3,6C1.896,6,1,6.896,1,8s0.896,2,2,2
			c0.738,0,1.376-0.405,1.723-1h2.555C7.624,9.595,8.262,10,9,10s1.376-0.405,1.723-1h3.555C14.452,9.3,14.7,9.548,15,9.723v4.555
			c-0.189,0.11-0.349,0.259-0.492,0.423C14.142,14.275,13.605,14,13,14c-1.104,0-2,0.896-2,2c0,0.738,0.405,1.376,1,1.723v3.555
			c-0.595,0.347-1,0.984-1,1.723s0.405,1.376,1,1.723v1.555c-0.595,0.347-1,0.984-1,1.723c0,1.104,0.896,2,2,2s2-0.896,2-2
			c0-0.738-0.405-1.376-1-1.723v-1.555c0.595-0.347,1-0.984,1-1.723s-0.405-1.376-1-1.723v-3.555
			c0.192-0.112,0.363-0.254,0.507-0.422C14.873,17.723,15.398,18,16,18c0.602,0,1.128-0.277,1.492-0.699
			c0.146,0.168,0.315,0.31,0.508,0.422v3.555c-0.596,0.347-1,0.984-1,1.723s0.404,1.376,1,1.723v1.555c-0.596,0.347-1,0.984-1,1.723
			c0,1.104,0.896,2,2,2s2-0.896,2-2c0-0.738-0.404-1.376-1-1.723v-1.555c0.596-0.347,1-0.984,1-1.723s-0.404-1.376-1-1.723v-3.555
			c0.596-0.347,1-0.984,1-1.723c0-1.104-0.896-2-2-2c-0.605,0-1.142,0.275-1.509,0.7c-0.143-0.164-0.302-0.313-0.491-0.423V9.723
			C17.3,9.548,17.548,9.3,17.723,9h3.555c0.347,0.595,0.984,1,1.723,1s1.376-0.405,1.723-1h2.555c0.347,0.595,0.984,1,1.723,1
			c1.104,0,2-0.896,2-2S30.104,6,29,6z"/>
	</g>
</g>
</svg>
