<?xml version="1.0" encoding="utf-8"?>
<!-- Generator: Adobe Illustrator 16.0.0, SVG Export Plug-In . SVG Version: 6.00 Build 0)  -->
<!DOCTYPE svg PUBLIC "-//W3C//DTD SVG 1.1//EN" "http://www.w3.org/Graphics/SVG/1.1/DTD/svg11.dtd">
<svg version="1.1" id="Create_1_" xmlns="http://www.w3.org/2000/svg" xmlns:xlink="http://www.w3.org/1999/xlink" x="0px" y="0px"
	 width="24px" height="24px" viewBox="0 0 24 24" enable-background="new 0 0 24 24" xml:space="preserve">
<g id="Create">
	<g>
		<path fill-rule="evenodd" clip-rule="evenodd" fill="#B2B2B2" d="M13,3l-1-2l-1,2l1,2L13,3z M3,3l1,2l2,1L5,4L3,3z M21,3l-2,1
			l-1,2l2-1L21,3z M3,21l2-1l1-2l-2,1L3,21z M21,11l-2,1l2,1l2-1L21,11z M18,18l1,2l2,1l-1-2L18,18z M12,7c-2.761,0-5,2.238-5,5
			s2.239,5,5,5c2.762,0,5-2.238,5-5S14.762,7,12,7z M11,21l1,2l1-2l-1-2L11,21z M5,12l-2-1l-2,1l2,1L5,12z"/>
	</g>
</g>
</svg>
