<?xml version="1.0" encoding="utf-8"?>
<!-- Generator: Adobe Illustrator 16.0.0, SVG Export Plug-In . SVG Version: 6.00 Build 0)  -->
<!DOCTYPE svg PUBLIC "-//W3C//DTD SVG 1.1//EN" "http://www.w3.org/Graphics/SVG/1.1/DTD/svg11.dtd">
<svg version="1.1" id="Disc_2_" xmlns="http://www.w3.org/2000/svg" xmlns:xlink="http://www.w3.org/1999/xlink" x="0px" y="0px"
	 width="16px" height="16px" viewBox="0 0 16 16" enable-background="new 0 0 16 16" xml:space="preserve">
<g id="Inner" opacity="0.502">
	<g>
		<path fill-rule="evenodd" clip-rule="evenodd" fill="#BBBBBB" d="M8,4C5.791,4,4,5.791,4,8s1.791,4,4,4s4-1.791,4-4S10.209,4,8,4z
			 M8,9C7.448,9,7,8.553,7,8s0.448-1,1-1c0.553,0,1,0.447,1,1S8.553,9,8,9z"/>
	</g>
</g>
<g id="Disc">
	<g>
		<path fill-rule="evenodd" clip-rule="evenodd" fill="#BBBBBB" d="M8,1C4.134,1,1,4.134,1,8s3.134,7,7,7s7-3.134,7-7S11.866,1,8,1z
			 M8,11c-1.657,0-3-1.343-3-3s1.343-3,3-3c1.656,0,3,1.343,3,3S9.656,11,8,11z"/>
	</g>
</g>
<g id="Shine">
	<g>
		<path fill-rule="evenodd" clip-rule="evenodd" fill="#DDDDDD" d="M10.934,1.65L9.307,5.311c0.603,0.293,1.089,0.78,1.383,1.383
			l3.66-1.627C13.652,3.561,12.439,2.347,10.934,1.65z M5.311,9.307L1.65,10.934c0.697,1.506,1.911,2.719,3.417,3.416l1.627-3.66
			C6.091,10.396,5.604,9.909,5.311,9.307z"/>
	</g>
</g>
</svg>
