<?xml version="1.0" encoding="utf-8"?>
<!-- Generator: Adobe Illustrator 16.0.0, SVG Export Plug-In . SVG Version: 6.00 Build 0)  -->
<!DOCTYPE svg PUBLIC "-//W3C//DTD SVG 1.1//EN" "http://www.w3.org/Graphics/SVG/1.1/DTD/svg11.dtd">
<svg version="1.1" id="Don_x27_t_Loop_1_" xmlns="http://www.w3.org/2000/svg" xmlns:xlink="http://www.w3.org/1999/xlink" x="0px"
	 y="0px" width="24px" height="24px" viewBox="0 0 24 24" enable-background="new 0 0 24 24" xml:space="preserve">
<g id="Don_x27_t_Loop">
	<g>
		<path fill-rule="evenodd" clip-rule="evenodd" fill="#BBBBBB" d="M6,8h7l3-3H6V2L2,6v1l4,4V8z M3.5,17.5L6,15v-1l-3-3v6L3.5,17.5z
			 M18,16h-7l-3,3h10v3l4-4v-1l-4-4V16z M18,10l3,3V7l-0.5-0.5L18,9V10z M21,2L2,21l1,1L22,3L21,2z"/>
	</g>
</g>
</svg>
