<?xml version="1.0" encoding="utf-8"?>
<!-- Generator: Adobe Illustrator 16.0.0, SVG Export Plug-In . SVG Version: 6.00 Build 0)  -->
<!DOCTYPE svg PUBLIC "-//W3C//DTD SVG 1.1//EN" "http://www.w3.org/Graphics/SVG/1.1/DTD/svg11.dtd">
<svg version="1.1" id="Show_1_" xmlns="http://www.w3.org/2000/svg" xmlns:xlink="http://www.w3.org/1999/xlink" x="0px" y="0px"
	 width="32px" height="32px" viewBox="0 0 32 32" enable-background="new 0 0 32 32" xml:space="preserve">
<g id="Show">
	<g>
		<path fill-rule="evenodd" clip-rule="evenodd" d="M16,7C6,7,0,16,0,16s6,9,16,9s16-9,16-9S26,7,16,7z M16,21c-6.438,0-11-5-11-5
			s4.563-5,11-5s11,5,11,5S22.438,21,16,21z M21,16c0-2.762-2.238-5-5-5c-2.761,0-5,2.238-5,5s2.239,5,5,5
			C18.762,21,21,18.762,21,16z"/>
	</g>
</g>
</svg>
