<?xml version="1.0" encoding="utf-8"?>
<!-- Generator: Adobe Illustrator 16.0.0, SVG Export Plug-In . SVG Version: 6.00 Build 0)  -->
<!DOCTYPE svg PUBLIC "-//W3C//DTD SVG 1.1//EN" "http://www.w3.org/Graphics/SVG/1.1/DTD/svg11.dtd">
<svg version="1.1" id="Settings_1_" xmlns="http://www.w3.org/2000/svg" xmlns:xlink="http://www.w3.org/1999/xlink" x="0px"
	 y="0px" width="16px" height="16px" viewBox="0 0 16 16" enable-background="new 0 0 16 16" xml:space="preserve">
<g id="Settings">
	<g>
		<path fill-rule="evenodd" clip-rule="evenodd" fill="#BBBBBB" d="M16,6.4L13.6,5.6L15,3l-2-2l-2.6,1.4L9.6,0H6.4L5.6,2.4L3,1L1,3
			l1.4,2.6L0,6.4V9.6L2.4,10.4L1,13l2,2l2.6-1.4L6.4,16h3.2l0.801-2.4L13,15l2-2l-1.4-2.6L16,9.6V6.4z M8,11.012
			c-1.664,0-3.012-1.349-3.012-3.012S6.336,4.988,8,4.988c1.664,0,3.012,1.349,3.012,3.012S9.664,11.012,8,11.012z"/>
	</g>
</g>
</svg>
