<?xml version="1.0" encoding="utf-8"?>
<!-- Generator: Adobe Illustrator 16.0.0, SVG Export Plug-In . SVG Version: 6.00 Build 0)  -->
<!DOCTYPE svg PUBLIC "-//W3C//DTD SVG 1.1//EN" "http://www.w3.org/Graphics/SVG/1.1/DTD/svg11.dtd">
<svg version="1.1" id="Grid_1_" xmlns="http://www.w3.org/2000/svg" xmlns:xlink="http://www.w3.org/1999/xlink" x="0px" y="0px"
	 width="24px" height="24px" viewBox="0 0 24 24" enable-background="new 0 0 24 24" xml:space="preserve">
<g id="Grid">
	<g>
		<path fill-rule="evenodd" clip-rule="evenodd" fill="#B2B2B2" d="M1,1v22h22V1H1z M13,2h4v4h-4V2z M13,7h4v4h-4V7z M17,13v4h-4v-4
			H17z M7,2h4v4H7V2z M7,7h4v4H7V7z M11,13v4H7v-4H11z M2,2h4v4H2V2z M2,7h4v4H2V7z M2,13h4v4H2V13z M2,22v-4h4v4H2z M7,22v-4h4v4H7
			z M13,22v-4h4v4H13z M22,22h-4v-4h4V22z M22,17h-4v-4h4V17z M22,11h-4V7h4V11z M22,6h-4V2h4V6z"/>
	</g>
</g>
</svg>
