<?xml version="1.0" encoding="utf-8"?>
<!-- Generator: Adobe Illustrator 16.0.0, SVG Export Plug-In . SVG Version: 6.00 Build 0)  -->
<!DOCTYPE svg PUBLIC "-//W3C//DTD SVG 1.1//EN" "http://www.w3.org/Graphics/SVG/1.1/DTD/svg11.dtd">
<svg version="1.1" id="Grid_1_" xmlns="http://www.w3.org/2000/svg" xmlns:xlink="http://www.w3.org/1999/xlink" x="0px" y="0px"
	 width="32px" height="32px" viewBox="0 0 32 32" enable-background="new 0 0 32 32" xml:space="preserve">
<g id="Grid">
	<g>
		<path fill-rule="evenodd" clip-rule="evenodd" fill="#BBBBBB" d="M3,3v26h26V3H3z M17,4h5v5h-5V4z M17,10h5v5h-5V10z M22,17v5h-5
			v-5H22z M10,4h5v5h-5V4z M10,10h5v5h-5V10z M15,17v5h-5v-5H15z M4,4h5v5H4V4z M4,10h5v5H4V10z M4,17h5v5H4V17z M4,28v-5h5v5H4z
			 M10,28v-5h5v5H10z M17,28v-5h5v5H17z M28,28h-5v-5h5V28z M28,22h-5v-5h5V22z M28,15h-5v-5h5V15z M28,9h-5V4h5V9z"/>
	</g>
</g>
</svg>
