<?xml version="1.0" encoding="utf-8"?>
<!-- Generator: Adobe Illustrator 16.0.0, SVG Export Plug-In . SVG Version: 6.00 Build 0)  -->
<!DOCTYPE svg PUBLIC "-//W3C//DTD SVG 1.1//EN" "http://www.w3.org/Graphics/SVG/1.1/DTD/svg11.dtd">
<svg version="1.1" id="Hide_2_" xmlns="http://www.w3.org/2000/svg" xmlns:xlink="http://www.w3.org/1999/xlink" x="0px" y="0px"
	 width="32px" height="32px" viewBox="0 0 32 32" enable-background="new 0 0 32 32" xml:space="preserve">
<g id="Hide">
	<g>
		<path fill-rule="evenodd" clip-rule="evenodd" fill="#BBBBBB" d="M32,16l-3-2l-2,2c0,0-4.563,3-11,3S5,16,5,16l-2-2l-3,2
			c0,0,2.352,2.717,6.542,4.763L4,25l2,1l2.613-4.354c1.015,0.375,2.1,0.702,3.271,0.936L11,27l2,1l1-5l-0.271-0.136
			C14.464,22.944,15.215,23,16,23c0.783,0,1.534-0.053,2.266-0.133L18,23l1,5l2-1l-0.884-4.417c1.168-0.235,2.265-0.553,3.277-0.928
			L26,26l2-1l-2.532-4.221C29.66,18.729,32,16,32,16z"/>
	</g>
</g>
</svg>
