<?xml version="1.0" encoding="utf-8"?>
<!-- Generator: Adobe Illustrator 16.0.0, SVG Export Plug-In . SVG Version: 6.00 Build 0)  -->
<!DOCTYPE svg PUBLIC "-//W3C//DTD SVG 1.1//EN" "http://www.w3.org/Graphics/SVG/1.1/DTD/svg11.dtd">
<svg version="1.1" id="Instances_1_" xmlns="http://www.w3.org/2000/svg" xmlns:xlink="http://www.w3.org/1999/xlink" x="0px"
	 y="0px" width="16px" height="16px" viewBox="0 0 16 16" enable-background="new 0 0 16 16" xml:space="preserve">
<g id="Instances">
	<g>
		<path fill-rule="evenodd" clip-rule="evenodd" fill="#BBBBBB" d="M2.5,2C1.671,2,1,2.672,1,3.5S1.671,5,2.5,5S4,4.328,4,3.5
			S3.329,2,2.5,2z M6.5,5h7C14.328,5,15,4.328,15,3.5S14.328,2,13.5,2h-7C5.671,2,5,2.672,5,3.5S5.671,5,6.5,5z M2.5,6
			C1.671,6,1,6.672,1,7.5S1.671,9,2.5,9S4,8.328,4,7.5S3.329,6,2.5,6z M13.5,6h-7C5.671,6,5,6.672,5,7.5S5.671,9,6.5,9h7
			C14.328,9,15,8.328,15,7.5S14.328,6,13.5,6z M2.5,10C1.671,10,1,10.672,1,11.5S1.671,13,2.5,13S4,12.328,4,11.5S3.329,10,2.5,10z
			 M13.5,10h-7C5.671,10,5,10.672,5,11.5S5.671,13,6.5,13h7c0.828,0,1.5-0.672,1.5-1.5S14.328,10,13.5,10z"/>
	</g>
</g>
</svg>
