<?xml version="1.0" encoding="utf-8"?>
<!-- Generator: Adobe Illustrator 16.0.0, SVG Export Plug-In . SVG Version: 6.00 Build 0)  -->
<!DOCTYPE svg PUBLIC "-//W3C//DTD SVG 1.1//EN" "http://www.w3.org/Graphics/SVG/1.1/DTD/svg11.dtd">
<svg version="1.1" id="Instances_1_" xmlns="http://www.w3.org/2000/svg" xmlns:xlink="http://www.w3.org/1999/xlink" x="0px"
	 y="0px" width="24px" height="24px" viewBox="0 0 24 24" enable-background="new 0 0 24 24" xml:space="preserve">
<g id="Instances">
	<g>
		<path fill-rule="evenodd" clip-rule="evenodd" fill="#B2B2B2" d="M8.5,9h12C21.328,9,22,8.328,22,7.5S21.328,6,20.5,6h-12
			C7.671,6,7,6.672,7,7.5S7.671,9,8.5,9z M3.5,6C2.671,6,2,6.672,2,7.5S2.671,9,3.5,9S5,8.328,5,7.5S4.329,6,3.5,6z M20.5,11h-12
			C7.671,11,7,11.672,7,12.5S7.671,14,8.5,14h12c0.828,0,1.5-0.672,1.5-1.5S21.328,11,20.5,11z M3.5,11C2.671,11,2,11.672,2,12.5
			S2.671,14,3.5,14S5,13.328,5,12.5S4.329,11,3.5,11z M20.5,16h-12C7.671,16,7,16.672,7,17.5S7.671,19,8.5,19h12
			c0.828,0,1.5-0.672,1.5-1.5S21.328,16,20.5,16z M3.5,16C2.671,16,2,16.672,2,17.5S2.671,19,3.5,19S5,18.328,5,17.5
			S4.329,16,3.5,16z"/>
	</g>
</g>
</svg>
