<?xml version="1.0" encoding="utf-8"?>
<!-- Generator: Adobe Illustrator 16.0.0, SVG Export Plug-In . SVG Version: 6.00 Build 0)  -->
<!DOCTYPE svg PUBLIC "-//W3C//DTD SVG 1.1//EN" "http://www.w3.org/Graphics/SVG/1.1/DTD/svg11.dtd">
<svg version="1.1" id="Link_1_" xmlns="http://www.w3.org/2000/svg" xmlns:xlink="http://www.w3.org/1999/xlink" x="0px" y="0px"
	 width="32px" height="32px" viewBox="0 0 32 32" enable-background="new 0 0 32 32" xml:space="preserve">
<g id="Link">
	<g>
		<path fill-rule="evenodd" clip-rule="evenodd" fill="#BBBBBB" d="M28,22l-4-4c-1.217-1.217-3.225-1.473-4.794-0.794l-4.413-4.413
			C15.473,11.225,15.217,9.217,14,8l-4-4C8.438,2.438,5.562,2.438,4,4s-1.562,4.438,0,6l4,4c1.217,1.217,3.225,1.473,4.794,0.794
			l4.412,4.412C16.527,20.775,16.783,22.783,18,24l4,4c1.563,1.563,4.438,1.563,6,0S29.563,23.563,28,22z M10,13L5,8
			C3.594,6.594,6.531,3.531,8,5l5,5c0.355,0.355,0.415,0.82,0.289,1.289L12,10l-2,2l1.289,1.289C10.82,13.415,10.355,13.355,10,13z
			 M24,27l-5-5c-0.363-0.363-0.433-0.838-0.316-1.316L20,22l2-2l-1.333-1.333C21.143,18.547,21.62,18.62,22,19l5,5
			C28.375,25.375,25.375,28.375,24,27z"/>
	</g>
</g>
</svg>
