<?xml version="1.0" encoding="UTF-8" standalone="no"?>
<!-- Generator: Adobe Illustrator 16.0.0, SVG Export Plug-In . SVG Version: 6.00 Build 0)  -->

<svg
   xmlns:dc="http://purl.org/dc/elements/1.1/"
   xmlns:cc="http://creativecommons.org/ns#"
   xmlns:rdf="http://www.w3.org/1999/02/22-rdf-syntax-ns#"
   xmlns:svg="http://www.w3.org/2000/svg"
   xmlns="http://www.w3.org/2000/svg"
   xmlns:sodipodi="http://sodipodi.sourceforge.net/DTD/sodipodi-0.dtd"
   xmlns:inkscape="http://www.inkscape.org/namespaces/inkscape"
   version="1.1"
   id="Samus_Silhouette_1_"
   x="0px"
   y="0px"
   width="32px"
   height="32px"
   viewBox="0 0 32 32"
   enable-background="new 0 0 32 32"
   xml:space="preserve"
   sodipodi:docname="Model Preview.svg"
   inkscape:version="0.92.3 (2405546, 2018-03-11)"><metadata
   id="metadata17"><rdf:RDF><cc:Work
       rdf:about=""><dc:format>image/svg+xml</dc:format><dc:type
         rdf:resource="http://purl.org/dc/dcmitype/StillImage" /></cc:Work></rdf:RDF></metadata><sodipodi:namedview
   pagecolor="#ffffff"
   bordercolor="#666666"
   borderopacity="1"
   objecttolerance="10"
   gridtolerance="10"
   guidetolerance="10"
   inkscape:pageopacity="0"
   inkscape:pageshadow="2"
   inkscape:window-width="1920"
   inkscape:window-height="1017"
   id="namedview15"
   showgrid="false"
   inkscape:zoom="14.75"
   inkscape:cx="12.347247"
   inkscape:cy="29.078139"
   inkscape:window-x="-8"
   inkscape:window-y="-8"
   inkscape:window-maximized="1"
   inkscape:current-layer="Samus_Silhouette_1_" />
<defs
   id="defs7">
<radialGradient
   id="Gradient"
   cx="21.106239"
   cy="20.002903"
   r="22.044719"
   fx="28.173464"
   fy="19.621025"
   gradientTransform="matrix(0.86097803,-0.4106046,0.36740321,0.77039102,-8.1570278,-1.3700098)"
   gradientUnits="userSpaceOnUse">
<stop
   id="stop4"
   stop-color="#fff"
   offset="-99" />
	<stop
   id="stop2"
   stop-color="#4f4f4f"
   offset="1" />
	</radialGradient>
</defs>
<g
   id="Samus_Silhouette">
	<g
   id="g11">
		<path
   fill="url(#Gradient)"
   d="M31.842,7.546L31.84,7.542l-0.168-0.039l0.173,0.054L31.842,7.546z M31.946,7.589l-0.102-0.031    l-0.173-0.055l-0.159-0.05l-0.253-0.05l-0.16-0.03l-0.061-0.011l-0.026-0.006l-0.036-0.005l-0.255-0.043l-0.245-0.041    l-0.219-0.076l-0.012-0.1l-0.049-0.019l-0.211-0.019l-0.085,0.021l-0.036-0.023l-0.248-0.07L29.6,6.978l-0.247,0.074l-0.012,0.003    l-0.042,0.031l-0.012-0.004L29.236,7.06l-0.045-0.004l-0.15,0.046l-0.248-0.07l-0.016-0.004L28.77,7.024v0.179l-0.075-0.121v-0.02    l-0.052-0.067h-0.774L27.61,6.996h-0.189l-0.256-0.034l-0.212-0.028l-0.109-0.038l-0.245-0.082l-0.075-0.024l-0.502-0.117    l-0.234-0.055l-0.637,0.02l-0.138,0.005l-0.258,0.008h-0.016l0.103,0.19l-0.174,0.025l-0.273-0.006h-0.119l-0.002-0.005    l-0.143-0.167H24.13l-0.258-0.001h-0.128l-0.258-0.025l-0.035-0.004L23.494,6.4l0.015-0.085L23.37,6.366l-0.063,0.021l0.063-0.253    L23.38,6.09l0.237-0.106l-0.034-0.258l-0.005-0.036l-0.203-0.479l-0.1-0.234l0.047-0.256l0.021-0.113l0.067-0.359l-0.25,0.063    l-0.25,0.064l-0.139,0.036L22.57,4.25l-0.133-0.106l-0.238-0.098L21.96,3.948l-0.146-0.06l-0.51-0.08l-0.162-0.026l-0.506,0.102    L20.607,3.89l-0.379-0.354l-0.174-0.163L20.01,3.629l-0.046,0.257l-0.042,0.237l-0.232,0.113l-0.231,0.114l-0.023,0.012    l-0.357,0.375l-0.112,0.118l-0.262,0.449l-0.078,0.133l-0.039,0.256l-0.008,0.055l-0.02,0.022l-0.016-0.066L18.52,5.612    L18.48,5.524l-0.254-0.048l-0.056-0.011h-0.024l0.004-0.004l0.004-0.003l0.07-0.062l0.121-0.145l0.033-0.018l0.089-0.095    l0.074-0.219l0.021-0.26l0.003-0.036l-0.049-0.255L18.51,4.329l-0.193-0.173l-0.14-0.124L18.1,3.816l-0.123-0.229l-0.045-0.083    l-0.188-0.178l-0.069-0.065l-0.234-0.108l-0.094-0.044l-0.255-0.043l-0.255-0.044L16.71,3l-0.255,0.043l-0.254,0.044l-0.127,0.021    L15.84,3.218l-0.094,0.043l-0.189,0.178l-0.07,0.065l-0.123,0.229l-0.044,0.083l-0.078,0.216L15.05,4.205l-0.139,0.124    l-0.049,0.255l-0.008,0.042l0.021,0.26l0.003,0.036l0.075,0.219l0.088,0.095l0.034,0.018l0.122,0.145l0.07,0.062l0.003,0.003    l0.004,0.004h-0.025l-0.253,0.049l-0.056,0.01L14.9,5.612l-0.023,0.092l-0.043-0.011l-0.04-0.256l-0.131-0.224l-0.131-0.225    l-0.078-0.134L14.098,4.48l-0.112-0.118l-0.464-0.229l-0.023-0.011l-0.045-0.257L13.408,3.61l-0.042-0.237L13.176,3.55    l-0.189,0.178L12.813,3.89L12.56,3.839l-0.253-0.051l-0.03-0.006l-0.255,0.04l-0.255,0.041l-0.162,0.025l-0.239,0.098    l-0.239,0.098l-0.146,0.06L10.78,4.306l-0.132,0.106l-0.5-0.129l-0.139-0.035l0.096,0.512l0.041,0.217l-0.102,0.239L9.941,5.455    l-0.1,0.234L9.808,5.948L9.803,5.983L10.04,6.09l0.04,0.013l0.032,0.259l0.003,0.027L10.05,6.366L9.911,6.315l0.043,0.257    l0.015,0.085L9.712,6.683L9.677,6.687H9.418L9.29,6.688H9.289L9.147,6.854L9.145,6.859H9.026L8.903,6.861l0.071-0.085l-0.01-0.155    L8.954,6.579l-0.203-0.16L8.548,6.258L8.539,6.25L8.523,6.183L8.43,6.172L8.355,6.118L8.326,6.091L8.162,6.06L8.084,5.91    L7.827,5.883L7.571,5.855L7.314,5.828L7.267,5.823l-0.64,0.095L6.501,5.937L6.454,5.943L6.387,6.096l-0.2,0.038L5.962,6.262    L5.925,6.283L5.844,6.285L5.74,6.249L5.487,6.198L5.473,6.195L5.215,6.202L4.957,6.209L4.184,6.229L3.925,6.236L3.872,6.237    L3.779,6.286L3.763,6.372l-0.001,0.03H3.72L3.718,6.359L3.703,6.268H3.434L3.419,6.359L3.417,6.402H3.363L3.361,6.359L3.346,6.268    H3.077L3.062,6.359L3.06,6.402H3.006L3.004,6.359L2.989,6.268H2.72L2.705,6.359L2.703,6.402H2.665L2.662,6.334L2.646,6.239    L2.388,6.251L2.13,6.262L1.873,6.273L1.615,6.284L1.382,6.295l-0.23,0.118L0.924,6.53L0.667,6.55L0.152,6.587l-0.123,0.01    L0.018,6.663l-0.009,0.19l-0.006,0.26l0,0.024l-0.001,0.26l0,0.082l0.001,0.26l0,0.082l0.006,0.261l0,0.023l0.009,0.19    l0.011,0.066l0.257,0.019L0.544,8.4l0.257,0.019l0.123,0.01l0.23,0.118l0.228,0.117L1.64,8.675l0.258,0.012l0.258,0.011    l0.258,0.012l0.233,0.01l0.016-0.094l0.003-0.068h0.038l0.002,0.042L2.72,8.691h0.269L3.004,8.6l0.002-0.043H3.06l0.002,0.042    l0.015,0.093h0.269L3.361,8.6l0.002-0.043h0.053l0.002,0.042l0.015,0.093h0.269L3.718,8.6L3.72,8.556h0.041l0.001,0.03    l0.016,0.087l0.093,0.049l0.258,0.007l0.258,0.006l0.516,0.014l0.258,0.007l0.258,0.007l0.054,0.002l0.253-0.051L5.74,8.71    l0.104-0.036l0.082,0.002L6.15,8.805l0.037,0.021l0.2,0.037l0.067,0.153l0.521,0.077L7.22,9.129l0.047,0.007l0.256-0.027    L7.78,9.081l0.256-0.027l0.047-0.005l0.078-0.149l0.165-0.031l0.029-0.027L8.43,8.787l0.093-0.011l0.015-0.067l0.203-0.161    l0.203-0.161l0.01-0.008l0.011-0.041l0.008-0.123L9.026,8.22h0.122l0.062,0.054l0.081,0.06l0.249,0.07l0.22,0.063L9.882,8.57    l0.246,0.08l0.216,0.07l0.258,0.006l0.258,0.007l0.215,0.005l0.257-0.028l0.181-0.021l0.008-0.007l0.009-0.022l0.028-0.046    l0.28,0.05l0.224,0.062l0.111,0.024l0.507-0.1l0.049-0.01l0.202-0.162l0.202-0.161l0.031-0.025l0.234-0.088L13.36,8.434    l0.054,0.255l0.021,0.103l0.167,0.176l0.068,0.238l0.211,0.149l0.011,0.008l0.086,0.235l0.229,0.122l0.015,0.008l0.088,0.201    l0.214,0.066l0.136,0.18l0.192,0.02l0.044,0.192l0.149,0.212l0.018,0.026l0.035,0.258l0.022,0.162l-0.115,0.233l-0.088,0.179    l0.017,0.117l-0.121,0.059l-0.137,0.221l-0.075,0.12l0.13,0.225l0.044,0.075l-0.095,0.134l-0.052-0.113l-0.021-0.001l-0.005-0.058    l-0.1-0.24l-0.043-0.104l-0.253-0.048l-0.017-0.003l-0.083,0.246l-0.083,0.247l-0.069,0.206l-0.141,0.218l-0.142,0.218    l-0.06,0.093l0.012,0.104l-0.162,0.109l-0.012,0.136l-0.016,0.26l-0.006,0.097l-0.019,0.236l-0.101,0.24l0.067,0.251l-0.016,0.261    l-0.001,0.012l-0.02,0.26l-0.008,0.101l-0.007,0.13l0.146,0.119l-0.026,0.096l0.032,0.259l0.033,0.258l0.032,0.259l0.033,0.258    l0.032,0.259l0.021,0.161l0.041,0.257l0.083,0.514l0.041,0.257l0.042,0.257l0.041,0.255l0.011,0.26l0.011,0.261l0.012,0.26    l0.011,0.26l0.011,0.261l0.005,0.109l0.07,0.251l0.07,0.25l0.022,0.08l0.105,0.237l0.002,0.005l0.147-0.094l0.07-0.021    l-0.013,0.03l-0.115,0.118l-0.187-0.021l-0.044,0.256l-0.044,0.257l-0.011,0.062l-0.12,0.23l-0.002,0.004l-0.003,0.169    l-0.14,0.063l-0.025,0.194l-0.012,0.144l-0.113,0.234l-0.038,0.08l0.075,0.249l0.028,0.095l-0.009,0.142l-0.004,0.196l0.076,0.048    l-0.002,0.198l0.105,0.237l0.006,0.015l0.13,0.504l0.064,0.252l0.065,0.252l0.054,0.21l0.023,0.26l0.023,0.259l0.023,0.26    l0.023,0.259l0.023,0.26l0.023,0.259l0.023,0.26l0.023,0.259l0.021,0.232l-0.203,0.479l-0.026,0.062l0.128,0.195l-0.023,0.072    l0.02,0.183l-0.028,0.009L14.18,28.37l-0.039,0.258l-0.021,0.14l-0.002,0.261l0,0.019l-0.022,0.259l-0.022,0.26l-0.009,0.103    l-0.057,0.115L13.981,30h2.121l0.002-0.214l-0.031-0.016l-0.053-0.202l0.023-0.164l0.08-0.127l0.003-0.26l0.003-0.25l-0.03-0.258    l-0.03-0.259l-0.016-0.139l-0.129-0.058l0.008-0.077l0.038-0.02l0.138-0.221l0.053-0.084l-0.102-0.239l-0.102-0.239l-0.026-0.062    l-0.018-0.2l-0.018-0.26l-0.019-0.26l-0.019-0.259l-0.018-0.26l-0.026-0.362l0.033-0.259l0.038-0.301L16,24.445l0.058-0.253    l0.058-0.254l0.012-0.047l0.095-0.242l0.054-0.134l0.014-0.194l0.079-0.04l0.013-0.196l0.004-0.14l0.097-0.241l0.036-0.089    l-0.09-0.244l-0.034-0.092l0.001-0.142l-0.008-0.196l-0.146-0.097l0.011-0.16l-0.022-0.259l-0.012-0.135l-0.026-0.26l-0.026-0.259    l-0.005-0.056l-0.186,0.021l-0.056-0.058l0.13,0.013l0.027-0.259l0.057-0.518l0.005-0.045l-0.021-0.26l-0.021-0.259l-0.02-0.26    l-0.021-0.26l-0.02-0.26l-0.012-0.139l0.082-0.514l0.041-0.258l0.029-0.188l0.078-0.248l0.078-0.249l0.156-0.496l0.077-0.248    l0.013-0.037l-0.007-0.261l-0.005-0.182l-0.125-0.229l-0.068-0.126l0.029-0.045l0.072,0.125h0.475l0.072-0.125l0.029,0.045    l-0.125,0.229l-0.068,0.126l-0.006,0.26l-0.005,0.183l0.077,0.248l0.313,0.992l0.012,0.038l0.123,0.771l0.029,0.188l-0.021,0.26    l-0.021,0.259l-0.021,0.26l-0.02,0.26l-0.021,0.26l-0.011,0.139l0.028,0.259l0.027,0.259l0.029,0.259l0.004,0.045l0.13-0.013    l-0.056,0.058l-0.186-0.021l-0.053,0.518l-0.006,0.057l-0.021,0.259l-0.013,0.135l0.011,0.16l-0.146,0.097l-0.008,0.196    l0.001,0.142l-0.09,0.244l-0.034,0.092L17,22.856l0.035,0.089l0.004,0.14l0.013,0.196l0.079,0.04l0.014,0.194l0.096,0.241    l0.053,0.135l0.059,0.254l0.059,0.253l0.115,0.508l0.012,0.047l0.031,0.258l0.033,0.259l0.006,0.043l-0.02,0.26l-0.018,0.26    l-0.037,0.52l-0.018,0.259l-0.008,0.103l-0.018,0.2l-0.203,0.479l-0.027,0.062l0.139,0.221l0.053,0.084l0.037,0.02l0.008,0.077    l-0.129,0.058l-0.029,0.259l-0.03,0.259l-0.017,0.138l0.003,0.261l0.003,0.249l0.08,0.127l0.023,0.164l-0.052,0.202l-0.031,0.016    L17.318,30h2.121l-0.026-0.217l-0.058-0.115l-0.021-0.259l-0.022-0.26l-0.009-0.103L19.3,28.786v-0.019l-0.038-0.257l-0.039-0.258    l-0.021-0.141l-0.028-0.009l0.02-0.183l-0.023-0.072l0.129-0.195l-0.203-0.479l-0.026-0.062l0.023-0.259l0.022-0.26l0.023-0.259    l0.023-0.26l0.023-0.259l0.022-0.26l0.023-0.259l0.022-0.26l0.021-0.232l0.129-0.504l0.065-0.252l0.118-0.462l0.105-0.238    l0.006-0.014l-0.002-0.198l0.076-0.048l-0.004-0.196l-0.009-0.142l0.074-0.25l0.028-0.094l-0.112-0.234l-0.038-0.08l-0.012-0.144    l-0.025-0.194l-0.14-0.063l-0.003-0.169l-0.12-0.23l-0.003-0.004l-0.088-0.514l-0.012-0.061l-0.186,0.021L19.01,20.62l-0.014-0.03    l0.07,0.021l0.147,0.094l0.105-0.237l0.003-0.005l0.068-0.251l0.07-0.251l0.021-0.079l0.012-0.26l0.012-0.261l0.012-0.26    l0.011-0.26l0.012-0.261l0.005-0.109l0.123-0.771l0.042-0.258l0.042-0.257l0.04-0.254l0.032-0.259l0.033-0.258l0.032-0.259    l0.032-0.258l0.033-0.259l0.02-0.161l-0.025-0.096l0.145-0.119l-0.006-0.13l-0.021-0.26l-0.008-0.101l-0.017-0.272l0.066-0.251    l-0.101-0.24l-0.019-0.236l-0.016-0.26l-0.006-0.097l-0.012-0.136l-0.162-0.109l0.012-0.104l-0.141-0.218l-0.143-0.218    l-0.06-0.093l-0.083-0.246l-0.083-0.247l-0.069-0.206l-0.254,0.048l-0.017,0.003l-0.1,0.24l-0.044,0.104l-0.004,0.058    l-0.021,0.001l-0.052,0.113l-0.095-0.134l0.131-0.225l0.043-0.075l-0.137-0.221l-0.075-0.12l-0.12-0.059l0.017-0.117l-0.116-0.233    l-0.088-0.179l0.035-0.258l0.021-0.162l0.15-0.213l0.018-0.025l0.045-0.192l0.191-0.02l0.137-0.18l0.215-0.066l0.088-0.201    l0.229-0.122l0.015-0.008l0.087-0.235l0.211-0.149l0.011-0.008l0.067-0.238l0.168-0.176l0.054-0.254l0.021-0.104l-0.035-0.229    l0.233,0.088l0.201,0.161l0.203,0.162l0.031,0.025l0.254,0.05L21.2,8.74l0.049,0.01l0.504-0.111l0.111-0.024l0.028,0.047    L21.9,8.683l0.006,0.001l0.003,0.006l0.257,0.028l0.18,0.021l0.258-0.006l0.258-0.007l0.215-0.005l0.246-0.08l0.217-0.07    l0.121-0.104l0.249-0.071l0.22-0.063l0.082-0.06l0.062-0.054h0.122l0.257-0.024h0.007l0.256,0.037l0.041,0.006h0.029l-0.047,0.118    l0.253,0.052l0.253,0.051l0.186,0.038l0.255-0.035l0.256-0.036l0.243-0.033l0.172,0.022l0.126-0.039L26.928,8.3l0.246-0.076    l0.247-0.076l0.243-0.016l0.258-0.016L28.18,8.1l0.257-0.016l0.258-0.017V8.01l-0.001-0.118h0.001l0.048-0.009l0.003,0.009    l0.071,0.172l0.182-0.006l0.133,0.031l0.062,0.062L29.25,8.18l0.258,0.013l0.044,0.002l0.2-0.049l0.258,0.006l0.1,0.002    l0.258,0.021l0.18,0.014l0.091-0.105l0.003-0.098l-0.069-0.05L30.327,7.85l-0.005-0.002l0.039-0.022l0.258-0.011l0.254-0.01    l0.256,0.023l0.115,0.011l0.258,0.015l0.157,0.01l0.057-0.08l0.085,0.013l0.015-0.019l0.106,0.014L32,7.691L31.946,7.589z"
   id="path9"
   style="fill:url(#Gradient)" />
	</g>
</g>
</svg>