<?xml version="1.0" encoding="utf-8"?>
<!-- Generator: Adobe Illustrator 16.0.0, SVG Export Plug-In . SVG Version: 6.00 Build 0)  -->
<!DOCTYPE svg PUBLIC "-//W3C//DTD SVG 1.1//EN" "http://www.w3.org/Graphics/SVG/1.1/DTD/svg11.dtd">
<svg version="1.1" id="Orbit_Camera_1_" xmlns="http://www.w3.org/2000/svg" xmlns:xlink="http://www.w3.org/1999/xlink" x="0px"
	 y="0px" width="32px" height="32px" viewBox="0 0 32 32" enable-background="new 0 0 32 32" xml:space="preserve">
<g id="Ellipse_1">
	<g>
		<path fill-rule="evenodd" clip-rule="evenodd" fill="#BBBBBB" d="M4.087,14.605C4.034,15.063,4,15.527,4,16
			c0,0.855,0.093,1.689,0.263,2.494L6.5,17.5L4.087,14.605z M16,4c-3.571,0-6.769,1.569-8.967,4.045
			C8.411,10.683,10.71,14.737,11,13c0.417-2.5,1.5-3,1.5-3L13,20l-8.443-0.384C6.092,24.476,10.633,28,16,28c6.627,0,12-5.373,12-12
			S22.627,4,16,4z"/>
	</g>
</g>
<g id="Shape_1">
	<g>
		<path fill-rule="evenodd" clip-rule="evenodd" fill="#BBBBBB" d="M5.402,3.35C5.455,3.298,5.455,3.297,5.402,3.35L5.402,3.35z
			 M5.003,3.749C5.004,3.749,5.004,3.749,5.003,3.749C5.194,3.558,5.335,3.417,5.402,3.35C5.345,3.408,5.222,3.53,5.003,3.749z
			 M2.175,6.578C-0.614,9.367,8,18,8,18l-3,1h7v-7l-1,3c0,0-8.563-8.679-5.998-11.25C4.315,4.438,2.988,5.765,2.175,6.578z
			 M14.196,3.042c0,0-5.281-3.204-6.364-2.121L5.004,3.749c1.041-1.036,6.363,2.122,6.363,2.122S16.596,9.904,18,7
			C18.523,6.477,14.196,3.042,14.196,3.042z M5.002,3.75c0,0,0-0.001,0.001-0.001C4.671,4.082,4.733,4.02,5.002,3.75z"/>
	</g>
</g>
</svg>
