<?xml version="1.0" encoding="utf-8"?>
<!-- Generator: Adobe Illustrator 16.0.0, SVG Export Plug-In . SVG Version: 6.00 Build 0)  -->
<!DOCTYPE svg PUBLIC "-//W3C//DTD SVG 1.1//EN" "http://www.w3.org/Graphics/SVG/1.1/DTD/svg11.dtd">
<svg version="1.1" id="Orbit_Camera_1_" xmlns="http://www.w3.org/2000/svg" xmlns:xlink="http://www.w3.org/1999/xlink" x="0px"
	 y="0px" width="24px" height="24px" viewBox="0 0 24 24" enable-background="new 0 0 24 24" xml:space="preserve">
<g id="Orbit_Sphere">
	<g>
		<path fill-rule="evenodd" clip-rule="evenodd" fill="#BBBBBB" d="M3.719,12.764c-0.253-0.349-0.487-0.684-0.707-1.007
			C3.01,11.838,3,11.917,3,12c0,0.328,0.02,0.651,0.054,0.97C3.487,12.899,3.793,12.866,3.719,12.764z M12,3
			C9.606,3,7.437,3.941,5.824,5.465c0.924,1.393,2.07,3.443,2.098,3.13C8.096,6.622,10,8,10,8v7c0,0-3.717,0-6.477,0
			c1.237,3.493,4.56,6,8.477,6c4.971,0,9-4.029,9-9S16.971,3,12,3z"/>
	</g>
</g>
<g id="Orbit_Arrow">
	<g>
		<path fill-rule="evenodd" clip-rule="evenodd" fill="#BBBBBB" d="M6.45,3c0.986-0.579,2.351-0.827,3.792-0.929
			C9.238,1.563,6.651,0.349,6,1C5.461,1.54,4.417,2.583,4.001,2.999C4.458,2.543,5.353,2.489,6.45,3z M4,3
			C3.791,3.21,3.739,3.261,4,3L2,5c-2.092,2.092,4,8,4,8l-2,1h5V9l-1,2C8,11,2.073,4.927,4,3z M13.31,4.736
			c-0.894,0.353-2.043,0.753-3.23,1.012c1.373,0.88,2.581,1.238,3.42-0.498C13.585,5.166,13.494,4.976,13.31,4.736z"/>
	</g>
</g>
</svg>
