<?xml version="1.0" encoding="utf-8"?>
<!-- Generator: Adobe Illustrator 16.0.0, SVG Export Plug-In . SVG Version: 6.00 Build 0)  -->
<!DOCTYPE svg PUBLIC "-//W3C//DTD SVG 1.1//EN" "http://www.w3.org/Graphics/SVG/1.1/DTD/svg11.dtd">
<svg version="1.1" xmlns="http://www.w3.org/2000/svg" xmlns:xlink="http://www.w3.org/1999/xlink" x="0px" y="0px" width="16px"
	 height="16px" viewBox="0 0 16 16" enable-background="new 0 0 16 16" xml:space="preserve">
<defs>
<linearGradient id="Gradient_Inner" x1="1" x2="0" y1="0" y2="2">
	<stop offset="25%" stop-color="#4eff37"/>
	<stop offset="45%" stop-color="#2e9b20"/>
</linearGradient>
<linearGradient id="Gradient_Outer" x1="1" x2="0" y1="0" y2="2">
	<stop offset="25%" stop-color="#31a621"/>
	<stop offset="45%" stop-color="#1b5a12"/>
</linearGradient>
</defs>
<g id="Plus_1_" enable-background="new    ">
	<g id="Plus">
		<g>
			<polygon fill="url(#Gradient_Outer)" points="10,6 10,0 6,0 6,6 0,6 0,10 6,10 6,16 10,16 10,10 16,10 16,6 			"/>
		</g>
	</g>
</g>
<g id="Plus_copy_1_" enable-background="new    ">
	<g id="Plus_copy">
		<g>
			<polygon fill="url(#Gradient_Inner)" points="9,7 9,1 7,1 7,7 1,7 1,9 7,9 7,15 9,15 9,9 15,9 15,7 			"/>
		</g>
	</g>
</g>
</svg>
