<?xml version="1.0" encoding="utf-8"?>
<!-- Generator: Adobe Illustrator 16.0.0, SVG Export Plug-In . SVG Version: 6.00 Build 0)  -->
<!DOCTYPE svg PUBLIC "-//W3C//DTD SVG 1.1//EN" "http://www.w3.org/Graphics/SVG/1.1/DTD/svg11.dtd">
<svg version="1.1" id="Icon_1_" xmlns="http://www.w3.org/2000/svg" xmlns:xlink="http://www.w3.org/1999/xlink" x="0px" y="0px"
	 width="16px" height="16px" viewBox="0 0 16 16" enable-background="new 0 0 16 16" xml:space="preserve">
<g id="Simple_BG_1_">
	<g id="Top_Left">
		<g>
			<path fill-rule="evenodd" clip-rule="evenodd" fill="#7F0000" d="M0,14h2V2H0V14z M2,0v2h12V0H2z"/>
		</g>
	</g>
	<g id="Bottom_Right">
		<g>
			<path fill-rule="evenodd" clip-rule="evenodd" fill="#530000" d="M14,2v12h2V2H14z M2,16h12v-2H2V16z"/>
		</g>
	</g>
	<g id="Center">
		<g>
			<rect x="2" y="2" fill="#DF0000" width="12" height="12"/>
		</g>
	</g>
	<g id="BR">
		<g>
			<polygon fill="#420000" points="14,14 14,16 16,14 			"/>
		</g>
	</g>
	<g id="BL__x2F__TR">
		<g>
			<path fill-rule="evenodd" clip-rule="evenodd" fill="#5F0000" d="M2,16v-2H0L2,16z M14,0v2h2L14,0z"/>
		</g>
	</g>
	<g id="Shape_1">
		<g>
			<polygon fill="#8F0000" points="0,2 2,2 2,0 			"/>
		</g>
	</g>
</g>
<g id="Ellipse_1_copy">
	<g>
		<path fill-rule="evenodd" clip-rule="evenodd" fill="#510000" d="M12.002,7.503c0-0.658-0.192-1.266-0.507-1.792l2.47-1.439
			l-0.932-1.119L11,5v0.054c-0.426-0.435-0.968-0.746-1.57-0.914L10,3H9v1.049C8.834,4.024,8.669,3.997,8.496,3.997
			c-0.655,0-1.261,0.191-1.785,0.504l-1.32-2.279L4.458,3.153l1.63,1.812c-0.382,0.362-0.67,0.813-0.86,1.313L2.035,5.391v0.932
			l2.982,0.746l0.023-0.047C5.019,7.181,4.99,7.338,4.99,7.503c0,0.915,0.359,1.741,0.934,2.366l-1.652,1.486l0.559,0.559
			l1.595-1.595c0.582,0.428,1.293,0.689,2.07,0.689c0.554,0,1.07-0.14,1.536-0.368l0.764,2.138l1.305-0.56l-1.121-2.242
			C11.611,9.343,12.002,8.469,12.002,7.503z M8.51,9.988c-1.38,0-2.499-1.119-2.499-2.499c0-1.379,1.118-2.498,2.499-2.498
			c1.379,0,2.498,1.119,2.498,2.498C11.008,8.869,9.889,9.988,8.51,9.988z"/>
	</g>
</g>
</svg>
