<?xml version="1.0" encoding="utf-8"?>
<!-- Generator: Adobe Illustrator 16.0.0, SVG Export Plug-In . SVG Version: 6.00 Build 0)  -->
<!DOCTYPE svg PUBLIC "-//W3C//DTD SVG 1.1//EN" "http://www.w3.org/Graphics/SVG/1.1/DTD/svg11.dtd">
<svg version="1.1" id="POI_1_" xmlns="http://www.w3.org/2000/svg" xmlns:xlink="http://www.w3.org/1999/xlink" x="0px" y="0px"
	 width="24px" height="24px" viewBox="0 0 24 24" enable-background="new 0 0 24 24" xml:space="preserve">
<g id="POI">
	<g>
		<path fill-rule="evenodd" clip-rule="evenodd" fill="#BBBBBB" d="M4,12h2c0-3.143,2.417-5.717,5.494-5.975L12,4
			c-1.607,0-3.1,0.479-4.353,1.293L6,2L4,4l2.343,2.343C5.498,7.188,4.849,8.226,4.448,9.379L1,8v2l3.104,0.776
			C4.042,11.176,4,11.583,4,12z M15.525,4.827c-0.32-0.158-0.66-0.28-1.003-0.396L15,3h-1l-0.578,1.157
			c-0.147-0.027-0.287-0.074-0.438-0.093l-0.491,1.964c0.722,0.061,1.408,0.244,2.035,0.537L15.525,4.827z M6.09,13H4.069
			c0.195,1.562,0.847,2.976,1.808,4.123L3,20l1,1l2.875-2.875c0.247,0.207,0.502,0.402,0.773,0.579l0.91-1.819
			C7.281,15.98,6.36,14.607,6.09,13z M22,6l-2-2l-2.357,2.357c-0.301-0.3-0.617-0.585-0.962-0.835l-1.312,1.514
			C16.957,8.115,18,9.936,18,12h2c0-1.37-0.351-2.655-0.959-3.781L22,6z M17.705,13.853l1.799,0.899
			c0.205-0.558,0.346-1.146,0.424-1.752h-2.017C17.861,13.291,17.795,13.577,17.705,13.853z M19.115,15.646L17.251,14.9
			C16.229,16.748,14.261,18,12,18c-0.773,0-1.508-0.152-2.186-0.419L8.58,19.228C9.617,19.72,10.774,20,12,20
			c0.789,0,1.549-0.116,2.269-0.33L16,24l3-1l-2.602-4.335C17.541,17.907,18.484,16.872,19.115,15.646z"/>
	</g>
</g>
</svg>
