<?xml version="1.0" encoding="utf-8"?>
<!-- Generator: Adobe Illustrator 16.0.0, SVG Export Plug-In . SVG Version: 6.00 Build 0)  -->
<!DOCTYPE svg PUBLIC "-//W3C//DTD SVG 1.1//EN" "http://www.w3.org/Graphics/SVG/1.1/DTD/svg11.dtd">
<svg version="1.1" id="Rotate_1_" xmlns="http://www.w3.org/2000/svg" xmlns:xlink="http://www.w3.org/1999/xlink" x="0px" y="0px"
	 width="32px" height="32px" viewBox="0 0 32 32" enable-background="new 0 0 32 32" xml:space="preserve">
<g id="Rotate">
	<g>
		<path fill-rule="evenodd" clip-rule="evenodd" fill="#BBBBBB" d="M22.549,18.082C21.672,20.932,19.041,23,15.931,23
			C12.103,23,9,19.866,9,16s3.103-7,6.931-7c2.821,0,5.249,1.703,6.331,4.146c0.001,0.003,0.005,0.005,0.007,0.008L18,16l11,1L28,6
			l-2.728,4.092C23.318,7.032,19.899,5,16,5C9.925,5,5,9.925,5,16s4.925,11,11,11c3.396,0,6.434-1.539,8.451-3.958
			c0.873-1.047,1.555-2.259,1.993-3.581C26.805,18.372,22.752,17.425,22.549,18.082z"/>
	</g>
</g>
</svg>
