<?xml version="1.0" encoding="utf-8"?>
<!-- Generator: Adobe Illustrator 16.0.0, SVG Export Plug-In . SVG Version: 6.00 Build 0)  -->
<!DOCTYPE svg PUBLIC "-//W3C//DTD SVG 1.1//EN" "http://www.w3.org/Graphics/SVG/1.1/DTD/svg11.dtd">
<svg version="1.1" id="Save_1_" xmlns="http://www.w3.org/2000/svg" xmlns:xlink="http://www.w3.org/1999/xlink" x="0px" y="0px"
	 width="32px" height="32px" viewBox="0 0 32 32" enable-background="new 0 0 32 32" xml:space="preserve">
<g id="Save">
	<g>
		<path fill-rule="evenodd" clip-rule="evenodd" fill="#BBBBBB" d="M23,3H4v26h24V8L23,3z M7,7c0-1.104,0.896-2,2-2h10
			c1.104,0,2,0.896,2,2v4c0,1.104-0.896,2-2,2H9c-1.104,0-2-0.896-2-2V7z M25,25c0,1.104-0.896,2-2,2H9c-1.104,0-2-0.896-2-2v-8
			c0-1.104,0.896-2,2-2h14c1.104,0,2,0.896,2,2V25z M17.5,12c0.828,0,1.5-0.672,1.5-1.5v-3C19,6.672,18.328,6,17.5,6
			S16,6.672,16,7.5v3C16,11.328,16.672,12,17.5,12z M22,18H10c-0.552,0-1,0.447-1,1s0.448,1,1,1h12c0.553,0,1-0.447,1-1
			S22.553,18,22,18z M22,22H10c-0.552,0-1,0.447-1,1s0.448,1,1,1h12c0.553,0,1-0.447,1-1S22.553,22,22,22z"/>
	</g>
</g>
</svg>
