<?xml version="1.0" encoding="utf-8"?>
<!-- Generator: Adobe Illustrator 16.0.0, SVG Export Plug-In . SVG Version: 6.00 Build 0)  -->
<!DOCTYPE svg PUBLIC "-//W3C//DTD SVG 1.1//EN" "http://www.w3.org/Graphics/SVG/1.1/DTD/svg11.dtd">
<svg version="1.1" id="Scale_2_" xmlns="http://www.w3.org/2000/svg" xmlns:xlink="http://www.w3.org/1999/xlink" x="0px" y="0px"
	 width="32px" height="32px" viewBox="0 0 32 32" enable-background="new 0 0 32 32" xml:space="preserve">
<g id="Scale_Gray" opacity="0.502">
	<g>
		<path fill-rule="evenodd" clip-rule="evenodd" fill="#BBBBBB" d="M1,1v30h30V1H1z M29,29H3V3h26V29z"/>
	</g>
</g>
<g id="Scale">
	<g>
		<path fill-rule="evenodd" clip-rule="evenodd" fill="#BBBBBB" d="M3,21H1v4h2V21z M3,13H1v4h2V13z M9,7l2-2H5v6l2-2l3,3l1-1l1-1
			L9,7z M25,9l2,2V5h-6l2,2l-3,3l1,1l1,1L25,9z M1,31h4v-2H1V31z M23,1h-4v2h4V1z M15,1h-4v2h4V1z M7,1H3v2h4V1z M3,5H1v4h2V5z
			 M11,11v10h10V11H11z M29,27h2v-4h-2V27z M29,19h2v-4h-2V19z M29,11h2V7h-2V11z M27,1v2h4V1H27z M17,31h4v-2h-4V31z M9,31h4v-2H9
			V31z M7,23l-2-2v6h6l-2-2l3-3l-1-1l-1-1L7,23z M27,27v-6l-2,2l-3-3l-1,1l-1,1l3,3l-2,2H27z M25,31h4v-2h-4V31z"/>
	</g>
</g>
</svg>
