<?xml version="1.0" encoding="utf-8"?>
<!-- Generator: Adobe Illustrator 16.0.0, SVG Export Plug-In . SVG Version: 6.00 Build 0)  -->
<!DOCTYPE svg PUBLIC "-//W3C//DTD SVG 1.1//EN" "http://www.w3.org/Graphics/SVG/1.1/DTD/svg11.dtd">
<svg version="1.1" id="Search_1_" xmlns="http://www.w3.org/2000/svg" xmlns:xlink="http://www.w3.org/1999/xlink" x="0px" y="0px"
	 width="16px" height="16px" viewBox="0 0 16 16" enable-background="new 0 0 16 16" xml:space="preserve">
<g id="Search">
	<g>
		<path fill-rule="evenodd" clip-rule="evenodd" fill="#BBBBBB" d="M10.5,0C7.462,0,5,2.463,5,5.5c0,1.264,0.431,2.424,1.147,3.353
			L4.5,10.5L4,10l-4,4l2,2l4-4l-0.5-0.5l1.647-1.647C8.076,10.569,9.236,11,10.5,11c3.037,0,5.5-2.463,5.5-5.5S13.537,0,10.5,0z
			 M10.5,9C8.566,9,7,7.433,7,5.5S8.566,2,10.5,2S14,3.567,14,5.5S12.434,9,10.5,9z"/>
	</g>
</g>
</svg>
