<?xml version="1.0" encoding="utf-8"?>
<!-- Generator: Adobe Illustrator 16.0.0, SVG Export Plug-In . SVG Version: 6.00 Build 0)  -->
<!DOCTYPE svg PUBLIC "-//W3C//DTD SVG 1.1//EN" "http://www.w3.org/Graphics/SVG/1.1/DTD/svg11.dtd">
<svg version="1.1" id="Show_1_" xmlns="http://www.w3.org/2000/svg" xmlns:xlink="http://www.w3.org/1999/xlink" x="0px" y="0px"
	 width="32px" height="32px" viewBox="0 0 32 32" enable-background="new 0 0 32 32" xml:space="preserve">
<g id="Show">
	<g>
		<path fill-rule="evenodd" clip-rule="evenodd" fill="#BBBBBB" d="M21,16c0-2.762-2.238-5-5-5c-2.761,0-5,2.238-5,5s2.239,5,5,5
			C18.762,21,21,18.762,21,16z M25.218,9.709L28,6l-2-1l-2.746,3.662c-0.975-0.455-2.022-0.841-3.137-1.13L21,4l-2-1l-1,4
			l0.355,0.178C17.598,7.067,16.814,7,16,7c-0.827,0-1.616,0.081-2.387,0.193L14,7l-1-4l-2,1l0.885,3.538
			C10.768,7.824,9.729,8.22,8.755,8.674L6,5L4,6l2.789,3.718C2.439,12.364,0,16,0,16s6,9,16,9s16-9,16-9S29.563,12.36,25.218,9.709z
			 M16,21c-6.438,0-11-5-11-5s4.563-5,11-5s11,5,11,5S22.438,21,16,21z"/>
	</g>
</g>
</svg>
