<?xml version="1.0" encoding="utf-8"?>
<!-- Generator: Adobe Illustrator 16.0.0, SVG Export Plug-In . SVG Version: 6.00 Build 0)  -->
<!DOCTYPE svg PUBLIC "-//W3C//DTD SVG 1.1//EN" "http://www.w3.org/Graphics/SVG/1.1/DTD/svg11.dtd">
<svg version="1.1" id="Show_Mesh_1_" xmlns="http://www.w3.org/2000/svg" xmlns:xlink="http://www.w3.org/1999/xlink" x="0px"
	 y="0px" width="24px" height="24px" viewBox="0 0 24 24" enable-background="new 0 0 24 24" xml:space="preserve">
<g id="Line_fill" opacity="0.6">
	<g>
		<path fill-rule="evenodd" clip-rule="evenodd" fill="#BBBBBB" d="M12,1C7.029,1,3,4.582,3,9c0,2.256,1.054,4.29,2.744,5.744L10,19
			v3h4v-3l4.256-4.256C19.945,13.29,21,11.256,21,9C21,4.582,16.971,1,12,1z M13,16h-2l-6-5V9l5,1V9h4v1l5-1v2L13,16z"/>
	</g>
</g>
<g id="Helmet">
	<g>
		<path fill-rule="evenodd" clip-rule="evenodd" fill="#BBBBBB" d="M21.6,8.066L19,15h-0.116c-0.445,2.266-2.357,4.103-4.884,4.748
			V19l4-4l2.823-7.53C20.443,5.729,19.427,4.191,18,3.05V6l-1,1v2.4L19,9v2l-6,5v3h-2v-3l-6-5V9l2,0.4V7L6,6V3.05
			C4.573,4.191,3.557,5.729,3.176,7.47L6,15l4,4v0.748C7.474,19.103,5.562,17.266,5.116,15H5L2.4,8.066L1,9v6l3,2l0.179-0.358
			c1.434,2.076,3.479,3.552,5.821,4.103V22h4v-1.256c2.342-0.551,4.387-2.026,5.82-4.103L20,17l3-2V9L21.6,8.066z M14,10l2-0.4V7
			l1-1V2.357c-1.167-0.697-2.531-1.143-4-1.29V9h1V10z M8,9.6l2,0.4V9h1V1.067C9.532,1.214,8.167,1.66,7,2.357V6l1,1V9.6z"/>
	</g>
</g>
</svg>
