<?xml version="1.0" encoding="utf-8"?>
<!-- Generator: Adobe Illustrator 16.0.0, SVG Export Plug-In . SVG Version: 6.00 Build 0)  -->
<!DOCTYPE svg PUBLIC "-//W3C//DTD SVG 1.1//EN" "http://www.w3.org/Graphics/SVG/1.1/DTD/svg11.dtd">
<svg version="1.1" id="Show_Skeleton_1_" xmlns="http://www.w3.org/2000/svg" xmlns:xlink="http://www.w3.org/1999/xlink" x="0px"
	 y="0px" width="24px" height="24px" viewBox="0 0 24 24" enable-background="new 0 0 24 24" xml:space="preserve">
<g id="Show_Skeleton">
	<g>
		<path fill-rule="evenodd" clip-rule="evenodd" fill="#BBBBBB" d="M20,13c-0.871,0-1.648,0.377-2.196,0.97L10.03,6.197
			C10.623,5.648,11,4.871,11,4c0-1.657-1.343-3-3-3S5,2.343,5,4c0,0.475,0.12,0.917,0.316,1.316C4.917,5.12,4.475,5,4,5
			C2.343,5,1,6.343,1,8s1.343,3,3,3c0.871,0,1.648-0.377,2.197-0.97l7.773,7.773C13.377,18.352,13,19.129,13,20c0,1.657,1.344,3,3,3
			s3-1.343,3-3c0-0.475-0.12-0.918-0.316-1.316C19.082,18.88,19.525,19,20,19c1.656,0,3-1.343,3-3S21.656,13,20,13z"/>
	</g>
</g>
</svg>
