<?xml version="1.0" encoding="utf-8"?>
<!-- Generator: Adobe Illustrator 16.0.0, SVG Export Plug-In . SVG Version: 6.00 Build 0)  -->
<!DOCTYPE svg PUBLIC "-//W3C//DTD SVG 1.1//EN" "http://www.w3.org/Graphics/SVG/1.1/DTD/svg11.dtd">
<svg version="1.1" id="Up_one_1_" xmlns="http://www.w3.org/2000/svg" xmlns:xlink="http://www.w3.org/1999/xlink" x="0px" y="0px"
	 width="16px" height="16px" viewBox="0 0 16 16" enable-background="new 0 0 16 16" xml:space="preserve">
<g id="Up_one">
	<g>
		<path fill-rule="evenodd" clip-rule="evenodd" fill="#BBBBBB" d="M12,7v1c0,0-0.5,6.344-8,4c3.188-1.281,3-4,3-4V7H3l-2,6h12l2-6
			H12z M3.75,6L6,3H1v6.25L2,6H3.75z M8,5c0,0,0,0.437,0,3c0,3.267-3,4-3,4s6,0.321,6-4c0-2.459,0-3,0-3l3,1L9.5,0L5,6L8,5z"/>
	</g>
</g>
</svg>
