<?xml version="1.0" encoding="utf-8"?>
<!-- Generator: Adobe Illustrator 16.0.0, SVG Export Plug-In . SVG Version: 6.00 Build 0)  -->
<!DOCTYPE svg PUBLIC "-//W3C//DTD SVG 1.1//EN" "http://www.w3.org/Graphics/SVG/1.1/DTD/svg11.dtd">
<svg version="1.1" id="Tree_1_" xmlns="http://www.w3.org/2000/svg" xmlns:xlink="http://www.w3.org/1999/xlink" x="0px" y="0px"
	 width="16px" height="16px" viewBox="0 0 16 16" enable-background="new 0 0 16 16" xml:space="preserve">
<g id="Tree">
	<g>
		<path fill-rule="evenodd" clip-rule="evenodd" fill="#BBBBBB" d="M8.092,10c0.207,0.581,0.756,1,1.408,1h4
			c0.828,0,1.5-0.672,1.5-1.5S14.328,8,13.5,8h-4C8.848,8,8.299,8.419,8.092,9H5V6h3.092C8.299,6.581,8.848,7,9.5,7h4
			C14.328,7,15,6.328,15,5.5S14.328,4,13.5,4h-4C8.848,4,8.299,4.419,8.092,5H5V3h1.5C7.329,3,8,2.328,8,1.5S7.329,0,6.5,0h-4
			C1.671,0,1,0.672,1,1.5S1.671,3,2.5,3H4v10l1,1h3.092c0.207,0.581,0.756,1,1.408,1h4c0.828,0,1.5-0.672,1.5-1.5S14.328,12,13.5,12
			h-4c-0.652,0-1.201,0.419-1.408,1H5v-3H8.092z"/>
	</g>
</g>
</svg>
