<?xml version="1.0" encoding="utf-8"?>
<!-- Generator: Adobe Illustrator 16.0.0, SVG Export Plug-In . SVG Version: 6.00 Build 0)  -->
<!DOCTYPE svg PUBLIC "-//W3C//DTD SVG 1.1//EN" "http://www.w3.org/Graphics/SVG/1.1/DTD/svg11.dtd">
<svg version="1.1" id="Tree_1_" xmlns="http://www.w3.org/2000/svg" xmlns:xlink="http://www.w3.org/1999/xlink" x="0px" y="0px"
	 width="24px" height="24px" viewBox="0 0 24 24" enable-background="new 0 0 24 24" xml:space="preserve">
<g id="Tree">
	<g>
		<path fill-rule="evenodd" clip-rule="evenodd" fill="#BBBBBB" d="M13.092,16c0.207,0.581,0.756,1,1.408,1h6
			c0.828,0,1.5-0.672,1.5-1.5S21.328,14,20.5,14h-6c-0.652,0-1.201,0.419-1.408,1H7v-4h6.092c0.207,0.581,0.756,1,1.408,1h6
			c0.828,0,1.5-0.672,1.5-1.5S21.328,9,20.5,9h-6c-0.652,0-1.201,0.419-1.408,1H7V5h2.5C10.329,5,11,4.328,11,3.5S10.329,2,9.5,2h-6
			C2.671,2,2,2.672,2,3.5S2.671,5,3.5,5H6v15l1,1h6.092c0.207,0.581,0.756,1,1.408,1h6c0.828,0,1.5-0.672,1.5-1.5S21.328,19,20.5,19
			h-6c-0.652,0-1.201,0.419-1.408,1H7v-4H13.092z"/>
	</g>
</g>
</svg>
