<?xml version="1.0" encoding="utf-8"?>
<!-- Generator: Adobe Illustrator 16.0.0, SVG Export Plug-In . SVG Version: 6.00 Build 0)  -->
<!DOCTYPE svg PUBLIC "-//W3C//DTD SVG 1.1//EN" "http://www.w3.org/Graphics/SVG/1.1/DTD/svg11.dtd">
<svg version="1.1" id="World_1_" xmlns="http://www.w3.org/2000/svg" xmlns:xlink="http://www.w3.org/1999/xlink" x="0px" y="0px"
	 width="24px" height="24px" viewBox="0 0 24 24" enable-background="new 0 0 24 24" xml:space="preserve">
<g id="World">
	<g>
		<path fill-rule="evenodd" clip-rule="evenodd" fill="#B2B2B2" d="M12,2C6.477,2,2,6.478,2,12s4.477,10,10,10
			c5.523,0,10-4.478,10-10S17.523,2,12,2z M6.878,4.61c0.795-0.554,1.693-0.956,2.648-1.224c-0.531,0.49-1.401,1.49-2.077,3.178
			C6.891,5.894,6.828,5.129,6.878,4.61z M5.984,5.321c0.004,0.497,0.155,1.486,1.094,2.313C6.734,8.816,6.5,10.254,6.5,12
			c0,0.135,0.01,0.256,0.013,0.387c-2.198-0.582-3.115-1.416-3.399-1.744C3.432,8.542,4.479,6.682,5.984,5.321z M4.618,17.141
			C3.601,15.683,3,13.912,3,12c0,0,0.736,0.929,3.569,1.519c0.144,1.705,0.515,3.068,0.968,4.135
			C6.282,17.479,5.236,17.274,4.618,17.141z M5.404,18.109c0.501,0.13,1.447,0.35,2.618,0.539c0.562,1.004,1.149,1.644,1.538,1.996
			C7.946,20.19,6.514,19.306,5.404,18.109z M11.5,20.974c-0.207-0.012-0.409-0.039-0.612-0.064c-0.264-0.222-0.983-0.89-1.696-2.098
			c0.73,0.088,1.507,0.155,2.308,0.176V20.974z M11.5,17.988c-0.975-0.02-1.937-0.096-2.837-0.195
			c-0.485-1.064-0.895-2.422-1.068-4.095c1.061,0.16,2.338,0.273,3.905,0.293V17.988z M11.5,12.991
			c-1.601-0.025-2.906-0.171-3.979-0.377C7.514,12.41,7.5,12.213,7.5,12c0-1.454,0.184-2.7,0.46-3.774
			c0.81,0.409,1.944,0.706,3.54,0.758V12.991z M11.5,7.985C9.981,7.931,8.956,7.634,8.257,7.228
			c0.849-2.445,2.161-3.734,2.596-4.109c0.215-0.027,0.427-0.068,0.646-0.08V7.985z M18.017,5.321
			c1.505,1.361,2.552,3.22,2.87,5.322c-0.284,0.328-1.201,1.162-3.399,1.744C17.49,12.256,17.5,12.135,17.5,12
			c0-1.746-0.233-3.184-0.578-4.365C17.861,6.808,18.012,5.818,18.017,5.321z M16.55,6.564c-0.675-1.688-1.546-2.689-2.076-3.179
			c0.955,0.269,1.854,0.671,2.648,1.225C17.172,5.129,17.109,5.893,16.55,6.564z M12.5,3.039c0.22,0.012,0.431,0.053,0.646,0.08
			c0.436,0.375,1.748,1.664,2.596,4.109c-0.698,0.406-1.724,0.703-3.242,0.757V3.039z M12.5,8.984
			c1.595-0.052,2.729-0.349,3.54-0.758C16.316,9.3,16.5,10.546,16.5,12c0,0.213-0.014,0.41-0.021,0.614
			c-1.073,0.206-2.378,0.352-3.979,0.377V8.984z M12.5,13.991c1.566-0.02,2.845-0.133,3.905-0.293
			c-0.174,1.673-0.584,3.03-1.068,4.095c-0.9,0.1-1.862,0.176-2.837,0.195V13.991z M12.5,18.987
			c0.801-0.021,1.577-0.088,2.308-0.176c-0.713,1.208-1.432,1.876-1.696,2.098c-0.202,0.025-0.404,0.053-0.611,0.064V18.987z
			 M14.439,20.645c0.389-0.353,0.977-0.992,1.538-1.996c1.171-0.189,2.117-0.409,2.618-0.539
			C17.486,19.306,16.054,20.19,14.439,20.645z M16.463,17.653c0.453-1.066,0.824-2.43,0.968-4.135C20.264,12.929,21,12,21,12
			c0,1.912-0.601,3.683-1.618,5.141C18.764,17.274,17.719,17.479,16.463,17.653z"/>
	</g>
</g>
</svg>
