<?xml version="1.0" encoding="utf-8"?>
<!-- Generator: Adobe Illustrator 16.0.0, SVG Export Plug-In . SVG Version: 6.00 Build 0)  -->
<!DOCTYPE svg PUBLIC "-//W3C//DTD SVG 1.1//EN" "http://www.w3.org/Graphics/SVG/1.1/DTD/svg11.dtd">
<svg version="1.1" id="World_1_" xmlns="http://www.w3.org/2000/svg" xmlns:xlink="http://www.w3.org/1999/xlink" x="0px" y="0px"
	 width="16px" height="16px" viewBox="0 0 16 16" enable-background="new 0 0 16 16" xml:space="preserve">
<g id="World">
	<g>
		<path fill-rule="evenodd" clip-rule="evenodd" fill="#BBBBBB" d="M8.5,0C4.358,0,1,3.357,1,7.5S4.358,15,8.5,15
			c4.143,0,7.5-3.357,7.5-7.5S12.643,0,8.5,0z M13.979,4.058c0.553,0.882,0.91,1.899,0.985,3c-0.125,0.192-0.643,0.855-2.016,1.355
			C12.973,8.117,13,7.825,13,7.5c0-0.868-0.098-1.621-0.249-2.29C13.641,4.746,13.912,4.224,13.979,4.058z M12.318,3.852
			c-0.188-0.445-0.4-0.81-0.617-1.141c0.572-0.188,0.543-0.422,0.439-0.569c0.28,0.191,0.55,0.396,0.796,0.627
			C12.854,3.099,12.676,3.488,12.318,3.852z M5.07,8.708C5.029,8.328,5,7.931,5,7.5c0-0.711,0.067-1.345,0.172-1.92
			C5.87,5.795,6.793,5.952,8,5.987V9C6.809,9,5.849,8.883,5.07,8.708z M8,10v2c-0.739,0-1.388-0.045-1.961-0.12
			c-0.323-0.574-0.618-1.269-0.808-2.139C5.981,9.896,6.887,10,8,10z M5.465,4.412c0.199-0.6,0.445-1.102,0.705-1.526
			C6.623,2.943,7.223,2.981,8,2.994V4.98C6.867,4.929,6.049,4.712,5.465,4.412z M11.534,4.412C10.95,4.712,10.133,4.929,9,4.98
			V2.994c0.777-0.012,1.377-0.051,1.829-0.108C11.089,3.31,11.336,3.812,11.534,4.412z M9,10c1.113,0,2.019-0.104,2.77-0.26
			c-0.19,0.87-0.485,1.564-0.808,2.14C10.388,11.955,9.738,12,9,12V10z M9,9V5.987c1.207-0.036,2.13-0.192,2.828-0.408
			C11.934,6.155,12,6.789,12,7.5c0,0.431-0.028,0.828-0.07,1.208C11.151,8.883,10.191,9,9,9z M11.327,1.668
			c-0.053,0.054-0.157,0.104-0.323,0.15c-0.194-0.204-0.38-0.38-0.534-0.501C10.768,1.412,11.051,1.534,11.327,1.668z M7.943,1.033
			C7.962,1.031,7.98,1.027,8,1.025V1h1v0.025c0.02,0.001,0.038,0.005,0.058,0.007c0.146,0.085,0.582,0.366,1.075,0.913
			C9.828,1.97,9.453,1.987,9,1.994V1.025C8.834,1.013,8.669,1,8.5,1S8.166,1.013,8,1.025v0.969C7.546,1.987,7.172,1.97,6.867,1.945
			C7.36,1.398,7.796,1.118,7.943,1.033z M5.997,1.818C5.83,1.773,5.726,1.723,5.672,1.668c0.277-0.134,0.561-0.256,0.858-0.351
			C6.376,1.438,6.191,1.615,5.997,1.818z M4.859,2.142C4.756,2.29,4.728,2.523,5.299,2.711c-0.217,0.331-0.43,0.696-0.617,1.141
			C4.325,3.488,4.146,3.099,4.063,2.769C4.31,2.537,4.579,2.333,4.859,2.142z M3.021,4.058C3.088,4.225,3.36,4.747,4.249,5.21
			C4.098,5.879,4,6.632,4,7.5c0,0.325,0.028,0.617,0.052,0.913c-1.373-0.5-1.891-1.163-2.016-1.355
			C2.111,5.957,2.469,4.94,3.021,4.058z M2.995,10.909C2.478,10.071,2.139,9.11,2.047,8.075C2.196,8.296,2.758,8.972,4.19,9.461
			c0.167,0.884,0.436,1.612,0.743,2.211C4.066,11.463,3.438,11.184,2.995,10.909z M4.212,12.354
			c0.364,0.178,0.837,0.338,1.453,0.454c0.317,0.396,0.625,0.685,0.866,0.874C5.66,13.406,4.877,12.945,4.212,12.354z M9.058,13.968
			C9.038,13.969,9.02,13.973,9,13.975V14H8v-0.025c-0.02-0.002-0.038-0.006-0.057-0.007c-0.155-0.09-0.639-0.406-1.168-1.02
			C7.148,12.979,7.547,13,8,13v0.975C8.166,13.987,8.331,14,8.5,14s0.334-0.013,0.5-0.025V13c0.453,0,0.852-0.021,1.227-0.052
			C9.696,13.562,9.213,13.878,9.058,13.968z M10.47,13.683c0.24-0.189,0.549-0.479,0.865-0.874c0.616-0.116,1.089-0.276,1.453-0.453
			C12.122,12.945,11.34,13.406,10.47,13.683z M14.005,10.91c-0.443,0.273-1.071,0.553-1.938,0.762
			c0.307-0.599,0.576-1.328,0.743-2.211c1.433-0.489,1.994-1.165,2.144-1.386C14.861,9.11,14.522,10.071,14.005,10.91z"/>
	</g>
</g>
</svg>
